<svg width="144" height="37" viewBox="0 0 144 37" fill="none" xmlns="http://www.w3.org/2000/svg">
<path d="M54.602 9.54V13.5H52.874V9.972L51.38 8.37H47.078V13.5H45.35V0.899999H52.784L54.53 2.646V6.57L53.144 7.956L54.602 9.54ZM47.078 6.894H52.01L52.82 6.102V3.168L52.01 2.376H47.078V6.894ZM57.6716 11.79V5.976H56.0516V4.536H57.7076V1.62H59.3456V4.536H62.1356V5.994H59.3456V11.25L60.1556 12.042H62.1356V13.5H59.3996L57.6716 11.79ZM63.5898 11.79V6.264L65.3178 4.536H70.0158L71.7438 6.264V9.54H65.2638V11.268L66.0558 12.06H69.2778L70.0698 11.286V10.674H71.7258V11.79L70.0338 13.5H65.2998L63.5898 11.79ZM70.0698 8.226V6.768L69.2598 5.976H66.0738L65.2638 6.768V8.226H70.0698ZM73.7302 11.97V9.756L75.2602 8.226H79.9762V6.714L79.1842 5.94H76.2502L75.4762 6.714V7.38H73.8022V6.282L75.5482 4.536H79.8862L81.6322 6.282V13.5H80.0662V12.024L78.5182 13.5H75.2602L73.7302 11.97ZM78.2842 12.114L79.9762 10.494V9.558H76.0342L75.4042 10.188V11.502L76.0342 12.114H78.2842ZM84.0549 4.536H85.6569V6.174L87.2949 4.536H89.4729L90.8229 5.886L92.1549 4.536H95.0889L96.8349 6.282V13.5H95.1609V6.804L94.3509 5.994H92.5329L91.3629 7.164V13.5H89.7429V6.786L88.9509 5.994H87.5829L85.7289 7.848V13.5H84.0549V4.536ZM45.26 31.5V18.54H50.399C51.275 18.54 51.992 18.717 52.55 19.071C53.114 19.419 53.531 19.866 53.801 20.412C54.077 20.958 54.215 21.522 54.215 22.104C54.215 22.818 54.044 23.424 53.702 23.922C53.366 24.42 52.907 24.756 52.325 24.93V24.48C53.141 24.666 53.759 25.053 54.179 25.641C54.605 26.229 54.818 26.898 54.818 27.648C54.818 28.416 54.671 29.088 54.377 29.664C54.083 30.24 53.645 30.69 53.063 31.014C52.487 31.338 51.773 31.5 50.921 31.5H45.26ZM47.456 29.457H50.651C51.029 29.457 51.368 29.382 51.668 29.232C51.968 29.076 52.202 28.86 52.37 28.584C52.544 28.302 52.631 27.969 52.631 27.585C52.631 27.237 52.556 26.925 52.406 26.649C52.256 26.373 52.037 26.154 51.749 25.992C51.461 25.824 51.116 25.74 50.714 25.74H47.456V29.457ZM47.456 23.715H50.372C50.684 23.715 50.963 23.655 51.209 23.535C51.455 23.415 51.65 23.238 51.794 23.004C51.938 22.77 52.01 22.482 52.01 22.14C52.01 21.69 51.866 21.315 51.578 21.015C51.29 20.715 50.888 20.565 50.372 20.565H47.456V23.715ZM60.2605 31.779C59.5405 31.779 58.9465 31.659 58.4785 31.419C58.0105 31.179 57.6385 30.873 57.3625 30.501C57.0865 30.129 56.8825 29.733 56.7505 29.313C56.6185 28.893 56.5315 28.497 56.4895 28.125C56.4535 27.747 56.4355 27.441 56.4355 27.207V21.78H58.6315V26.46C58.6315 26.76 58.6525 27.099 58.6945 27.477C58.7365 27.849 58.8325 28.209 58.9825 28.557C59.1385 28.899 59.3665 29.181 59.6665 29.403C59.9725 29.625 60.3835 29.736 60.8995 29.736C61.1755 29.736 61.4485 29.691 61.7185 29.601C61.9885 29.511 62.2315 29.358 62.4475 29.142C62.6695 28.92 62.8465 28.617 62.9785 28.233C63.1105 27.849 63.1765 27.363 63.1765 26.775L64.4635 27.324C64.4635 28.152 64.3015 28.902 63.9775 29.574C63.6595 30.246 63.1885 30.783 62.5645 31.185C61.9405 31.581 61.1725 31.779 60.2605 31.779ZM63.4375 31.5V28.485H63.1765V21.78H65.3545V31.5H63.4375ZM71.969 36.09C71.429 36.09 70.91 36.006 70.412 35.838C69.92 35.67 69.476 35.427 69.08 35.109C68.684 34.797 68.36 34.419 68.108 33.975L70.106 32.985C70.292 33.339 70.553 33.6 70.889 33.768C71.231 33.942 71.594 34.029 71.978 34.029C72.428 34.029 72.83 33.948 73.184 33.786C73.538 33.63 73.811 33.396 74.003 33.084C74.201 32.778 74.294 32.394 74.282 31.932V29.169H74.552V21.78H76.451V31.968C76.451 32.214 76.439 32.448 76.415 32.67C76.397 32.898 76.364 33.12 76.316 33.336C76.172 33.966 75.896 34.482 75.488 34.884C75.08 35.292 74.573 35.595 73.967 35.793C73.367 35.991 72.701 36.09 71.969 36.09ZM71.78 31.77C70.886 31.77 70.106 31.545 69.44 31.095C68.774 30.645 68.258 30.033 67.892 29.259C67.526 28.485 67.343 27.612 67.343 26.64C67.343 25.656 67.526 24.78 67.892 24.012C68.264 23.238 68.789 22.629 69.467 22.185C70.145 21.735 70.943 21.51 71.861 21.51C72.785 21.51 73.559 21.735 74.183 22.185C74.813 22.629 75.29 23.238 75.614 24.012C75.938 24.786 76.1 25.662 76.1 26.64C76.1 27.606 75.938 28.479 75.614 29.259C75.29 30.033 74.807 30.645 74.165 31.095C73.523 31.545 72.728 31.77 71.78 31.77ZM72.113 29.826C72.695 29.826 73.163 29.694 73.517 29.43C73.877 29.16 74.138 28.785 74.3 28.305C74.468 27.825 74.552 27.27 74.552 26.64C74.552 26.004 74.468 25.449 74.3 24.975C74.138 24.495 73.883 24.123 73.535 23.859C73.187 23.589 72.737 23.454 72.185 23.454C71.603 23.454 71.123 23.598 70.745 23.886C70.367 24.168 70.088 24.552 69.908 25.038C69.728 25.518 69.638 26.052 69.638 26.64C69.638 27.234 69.725 27.774 69.899 28.26C70.079 28.74 70.352 29.121 70.718 29.403C71.084 29.685 71.549 29.826 72.113 29.826ZM82.5784 31.5V18.54H87.7174C88.5934 18.54 89.3104 18.717 89.8684 19.071C90.4324 19.419 90.8494 19.866 91.1194 20.412C91.3954 20.958 91.5334 21.522 91.5334 22.104C91.5334 22.818 91.3624 23.424 91.0204 23.922C90.6844 24.42 90.2254 24.756 89.6434 24.93V24.48C90.4594 24.666 91.0774 25.053 91.4974 25.641C91.9234 26.229 92.1364 26.898 92.1364 27.648C92.1364 28.416 91.9894 29.088 91.6954 29.664C91.4014 30.24 90.9634 30.69 90.3814 31.014C89.8054 31.338 89.0914 31.5 88.2394 31.5H82.5784ZM84.7744 29.457H87.9694C88.3474 29.457 88.6864 29.382 88.9864 29.232C89.2864 29.076 89.5204 28.86 89.6884 28.584C89.8624 28.302 89.9494 27.969 89.9494 27.585C89.9494 27.237 89.8744 26.925 89.7244 26.649C89.5744 26.373 89.3554 26.154 89.0674 25.992C88.7794 25.824 88.4344 25.74 88.0324 25.74H84.7744V29.457ZM84.7744 23.715H87.6904C88.0024 23.715 88.2814 23.655 88.5274 23.535C88.7734 23.415 88.9684 23.238 89.1124 23.004C89.2564 22.77 89.3284 22.482 89.3284 22.14C89.3284 21.69 89.1844 21.315 88.8964 21.015C88.6084 20.715 88.2064 20.565 87.6904 20.565H84.7744V23.715ZM98.2268 31.77C97.2548 31.77 96.4058 31.551 95.6798 31.113C94.9538 30.675 94.3898 30.072 93.9878 29.304C93.5918 28.53 93.3938 27.642 93.3938 26.64C93.3938 25.62 93.5978 24.726 94.0058 23.958C94.4138 23.19 94.9808 22.59 95.7068 22.158C96.4328 21.726 97.2728 21.51 98.2268 21.51C99.2048 21.51 100.057 21.729 100.783 22.167C101.509 22.605 102.073 23.211 102.475 23.985C102.877 24.753 103.078 25.638 103.078 26.64C103.078 27.648 102.874 28.539 102.466 29.313C102.064 30.081 101.5 30.684 100.774 31.122C100.048 31.554 99.1988 31.77 98.2268 31.77ZM98.2268 29.736C99.0908 29.736 99.7328 29.448 100.153 28.872C100.573 28.296 100.783 27.552 100.783 26.64C100.783 25.698 100.57 24.948 100.144 24.39C99.7178 23.826 99.0788 23.544 98.2268 23.544C97.6448 23.544 97.1648 23.676 96.7868 23.94C96.4148 24.198 96.1388 24.561 95.9588 25.029C95.7788 25.491 95.6888 26.028 95.6888 26.64C95.6888 27.582 95.9018 28.335 96.3278 28.899C96.7598 29.457 97.3928 29.736 98.2268 29.736ZM108.706 31.779C107.986 31.779 107.392 31.659 106.924 31.419C106.456 31.179 106.084 30.873 105.808 30.501C105.532 30.129 105.328 29.733 105.196 29.313C105.064 28.893 104.977 28.497 104.935 28.125C104.899 27.747 104.881 27.441 104.881 27.207V21.78H107.077V26.46C107.077 26.76 107.098 27.099 107.14 27.477C107.182 27.849 107.278 28.209 107.428 28.557C107.584 28.899 107.812 29.181 108.112 29.403C108.418 29.625 108.829 29.736 109.345 29.736C109.621 29.736 109.894 29.691 110.164 29.601C110.434 29.511 110.677 29.358 110.893 29.142C111.115 28.92 111.292 28.617 111.424 28.233C111.556 27.849 111.622 27.363 111.622 26.775L112.909 27.324C112.909 28.152 112.747 28.902 112.423 29.574C112.105 30.246 111.634 30.783 111.01 31.185C110.386 31.581 109.618 31.779 108.706 31.779ZM111.883 31.5V28.485H111.622V21.78H113.8V31.5H111.883ZM123.051 31.5V26.82C123.051 26.514 123.03 26.175 122.988 25.803C122.946 25.431 122.847 25.074 122.691 24.732C122.541 24.384 122.313 24.099 122.007 23.877C121.707 23.655 121.299 23.544 120.783 23.544C120.507 23.544 120.234 23.589 119.964 23.679C119.694 23.769 119.448 23.925 119.226 24.147C119.01 24.363 118.836 24.663 118.704 25.047C118.572 25.425 118.506 25.911 118.506 26.505L117.219 25.956C117.219 25.128 117.378 24.378 117.696 23.706C118.02 23.034 118.494 22.5 119.118 22.104C119.742 21.702 120.51 21.501 121.422 21.501C122.142 21.501 122.736 21.621 123.204 21.861C123.672 22.101 124.044 22.407 124.32 22.779C124.596 23.151 124.8 23.547 124.932 23.967C125.064 24.387 125.148 24.786 125.184 25.164C125.226 25.536 125.247 25.839 125.247 26.073V31.5H123.051ZM116.31 31.5V21.78H118.245V24.795H118.506V31.5H116.31ZM133.293 31.5C132.651 31.62 132.021 31.671 131.403 31.653C130.791 31.641 130.242 31.53 129.756 31.32C129.27 31.104 128.901 30.765 128.649 30.303C128.427 29.883 128.31 29.454 128.298 29.016C128.286 28.578 128.28 28.083 128.28 27.531V19.08H130.44V27.405C130.44 27.795 130.443 28.137 130.449 28.431C130.461 28.725 130.524 28.965 130.638 29.151C130.854 29.511 131.199 29.712 131.673 29.754C132.147 29.796 132.687 29.772 133.293 29.682V31.5ZM126.516 23.481V21.78H133.293V23.481H126.516ZM136.397 35.82L138.269 30.681L138.305 32.193L134.066 21.78H136.325L139.331 29.484H138.755L141.68 21.78H143.849L138.431 35.82H136.397Z" fill="#131414"/>
<path d="M6.8715 8.01436C6.49643 7.63929 5.98772 7.42857 5.45729 7.42857H0.571428C0.255837 7.42857 0 7.68441 0 8V8V25.7143V25.7143C0 26.0802 0.145345 26.4311 0.404061 26.6898L5.1285 31.4142C5.50357 31.7893 6.01228 32 6.54271 32H9.71429C10.0299 32 10.2857 31.7442 10.2857 31.4286V31.4286C10.2857 28.0663 10.2857 23.185 10.2857 21.1429V21.1429C10.2857 20.8145 10.5519 20.5714 10.8802 20.5714H11.5102C11.8246 20.5714 12.127 20.6924 12.3547 20.9092L23.4207 31.4483C23.7926 31.8025 24.2864 32 24.8 32H31.4286C31.7442 32 32 31.7442 32 31.4286V31.4286V27.1141C32 26.5837 31.7893 26.075 31.4142 25.6999L22.3001 16.5858C21.925 16.2107 21.4163 16 20.8859 16H15.6856C15.1551 16 14.6464 15.7893 14.2714 15.4142L6.8715 8.01436Z" fill="#131414"/>
<path d="M4 0.571429C4 0.255838 4.25584 0 4.57143 0H25.4573C25.9877 0 26.4964 0.210714 26.8715 0.585786L31.4142 5.1285C31.7893 5.50357 32 6.01228 32 6.54272L32 13.7143V13.7143C32 14.0299 31.7441 14.2857 31.4286 14.2857H25.3999C24.8694 14.2857 24.3607 14.075 23.9856 13.6999L21.7286 11.4429C21.3536 11.0679 20.8449 10.8571 20.3144 10.8571H12.8284C12.298 10.8571 11.7893 10.6464 11.4142 10.2714L7.44293 6.30007C7.06786 5.925 6.55915 5.71429 6.02872 5.71429H4.57143C4.25583 5.71429 4 5.45845 4 5.14286V5.14286L4 0.571429V0.571429Z" fill="#131414"/>
</svg>
