<svg width="146" height="37" viewBox="0 0 146 37" fill="none" xmlns="http://www.w3.org/2000/svg">
<path d="M6.8715 8.01436C6.49643 7.63929 5.98772 7.42857 5.45729 7.42857H0.571428C0.255837 7.42857 0 7.68441 0 8V25.7143C0 26.0802 0.145345 26.4311 0.404061 26.6898L5.1285 31.4142C5.50357 31.7893 6.01228 32 6.54271 32H9.71429C10.0299 32 10.2857 31.7442 10.2857 31.4286C10.2857 28.0663 10.2857 23.185 10.2857 21.1429C10.2857 20.8145 10.5519 20.5714 10.8802 20.5714H11.5102C11.8246 20.5714 12.127 20.6924 12.3547 20.9092L23.4207 31.4483C23.7926 31.8025 24.2864 32 24.8 32H31.4286C31.7442 32 32 31.7442 32 31.4286V27.1141C32 26.5837 31.7893 26.075 31.4142 25.6999L22.3001 16.5858C21.925 16.2107 21.4163 16 20.8859 16H15.6856C15.1551 16 14.6464 15.7893 14.2714 15.4142L6.8715 8.01436Z" fill="#131414"/>
<path d="M4 0.571429C4 0.255838 4.25584 0 4.57143 0H25.4573C25.9877 0 26.4964 0.210714 26.8715 0.585786L31.4142 5.1285C31.7893 5.50357 32 6.01228 32 6.54272L32 13.7143C32 14.0299 31.7441 14.2857 31.4286 14.2857H25.3999C24.8694 14.2857 24.3607 14.075 23.9856 13.6999L21.7286 11.4429C21.3536 11.0679 20.8449 10.8571 20.3144 10.8571H12.8284C12.298 10.8571 11.7893 10.6464 11.4142 10.2714L7.44293 6.30007C7.06786 5.925 6.55915 5.71429 6.02872 5.71429H4.57143C4.25583 5.71429 4 5.45845 4 5.14286L4 0.571429Z" fill="#131414"/>
<path d="M56.602 9.54V13.5H54.874V9.972L53.38 8.37H49.078V13.5H47.35V0.899999H54.784L56.53 2.646V6.57L55.144 7.956L56.602 9.54ZM49.078 6.894H54.01L54.82 6.102V3.168L54.01 2.376H49.078V6.894ZM61.8496 2.394H58.0516V0.899999H67.3756V2.394H63.5776V13.5H61.8496V2.394ZM69.182 0.899999H77.642V2.412H70.91V6.426H77.12V7.92H70.91V11.988H77.642V13.5H69.182V0.899999ZM83.2372 0.899999H84.9652L89.5012 13.5H87.7192L86.6032 10.296H81.6172L80.5012 13.5H78.7192L83.2372 0.899999ZM86.1532 8.838L84.1192 2.952H84.0832L82.0852 8.838H86.1532ZM91.1195 0.899999H92.8655L96.8075 10.116H96.8435L100.804 0.899999H102.55V13.5H100.894V4.302H100.858L97.4375 12.078H96.2135L92.8115 4.302H92.7755V13.5H91.1195V0.899999ZM47.26 31.5V18.54H52.399C53.275 18.54 53.992 18.717 54.55 19.071C55.114 19.419 55.531 19.866 55.801 20.412C56.077 20.958 56.215 21.522 56.215 22.104C56.215 22.818 56.044 23.424 55.702 23.922C55.366 24.42 54.907 24.756 54.325 24.93V24.48C55.141 24.666 55.759 25.053 56.179 25.641C56.605 26.229 56.818 26.898 56.818 27.648C56.818 28.416 56.671 29.088 56.377 29.664C56.083 30.24 55.645 30.69 55.063 31.014C54.487 31.338 53.773 31.5 52.921 31.5H47.26ZM49.456 29.457H52.651C53.029 29.457 53.368 29.382 53.668 29.232C53.968 29.076 54.202 28.86 54.37 28.584C54.544 28.302 54.631 27.969 54.631 27.585C54.631 27.237 54.556 26.925 54.406 26.649C54.256 26.373 54.037 26.154 53.749 25.992C53.461 25.824 53.116 25.74 52.714 25.74H49.456V29.457ZM49.456 23.715H52.372C52.684 23.715 52.963 23.655 53.209 23.535C53.455 23.415 53.65 23.238 53.794 23.004C53.938 22.77 54.01 22.482 54.01 22.14C54.01 21.69 53.866 21.315 53.578 21.015C53.29 20.715 52.888 20.565 52.372 20.565H49.456V23.715ZM62.2605 31.779C61.5405 31.779 60.9465 31.659 60.4785 31.419C60.0105 31.179 59.6385 30.873 59.3625 30.501C59.0865 30.129 58.8825 29.733 58.7505 29.313C58.6185 28.893 58.5315 28.497 58.4895 28.125C58.4535 27.747 58.4355 27.441 58.4355 27.207V21.78H60.6315V26.46C60.6315 26.76 60.6525 27.099 60.6945 27.477C60.7365 27.849 60.8325 28.209 60.9825 28.557C61.1385 28.899 61.3665 29.181 61.6665 29.403C61.9725 29.625 62.3835 29.736 62.8995 29.736C63.1755 29.736 63.4485 29.691 63.7185 29.601C63.9885 29.511 64.2315 29.358 64.4475 29.142C64.6695 28.92 64.8465 28.617 64.9785 28.233C65.1105 27.849 65.1765 27.363 65.1765 26.775L66.4635 27.324C66.4635 28.152 66.3015 28.902 65.9775 29.574C65.6595 30.246 65.1885 30.783 64.5645 31.185C63.9405 31.581 63.1725 31.779 62.2605 31.779ZM65.4375 31.5V28.485H65.1765V21.78H67.3545V31.5H65.4375ZM73.969 36.09C73.429 36.09 72.91 36.006 72.412 35.838C71.92 35.67 71.476 35.427 71.08 35.109C70.684 34.797 70.36 34.419 70.108 33.975L72.106 32.985C72.292 33.339 72.553 33.6 72.889 33.768C73.231 33.942 73.594 34.029 73.978 34.029C74.428 34.029 74.83 33.948 75.184 33.786C75.538 33.63 75.811 33.396 76.003 33.084C76.201 32.778 76.294 32.394 76.282 31.932V29.169H76.552V21.78H78.451V31.968C78.451 32.214 78.439 32.448 78.415 32.67C78.397 32.898 78.364 33.12 78.316 33.336C78.172 33.966 77.896 34.482 77.488 34.884C77.08 35.292 76.573 35.595 75.967 35.793C75.367 35.991 74.701 36.09 73.969 36.09ZM73.78 31.77C72.886 31.77 72.106 31.545 71.44 31.095C70.774 30.645 70.258 30.033 69.892 29.259C69.526 28.485 69.343 27.612 69.343 26.64C69.343 25.656 69.526 24.78 69.892 24.012C70.264 23.238 70.789 22.629 71.467 22.185C72.145 21.735 72.943 21.51 73.861 21.51C74.785 21.51 75.559 21.735 76.183 22.185C76.813 22.629 77.29 23.238 77.614 24.012C77.938 24.786 78.1 25.662 78.1 26.64C78.1 27.606 77.938 28.479 77.614 29.259C77.29 30.033 76.807 30.645 76.165 31.095C75.523 31.545 74.728 31.77 73.78 31.77ZM74.113 29.826C74.695 29.826 75.163 29.694 75.517 29.43C75.877 29.16 76.138 28.785 76.3 28.305C76.468 27.825 76.552 27.27 76.552 26.64C76.552 26.004 76.468 25.449 76.3 24.975C76.138 24.495 75.883 24.123 75.535 23.859C75.187 23.589 74.737 23.454 74.185 23.454C73.603 23.454 73.123 23.598 72.745 23.886C72.367 24.168 72.088 24.552 71.908 25.038C71.728 25.518 71.638 26.052 71.638 26.64C71.638 27.234 71.725 27.774 71.899 28.26C72.079 28.74 72.352 29.121 72.718 29.403C73.084 29.685 73.549 29.826 74.113 29.826ZM84.5784 31.5V18.54H89.7174C90.5934 18.54 91.3104 18.717 91.8684 19.071C92.4324 19.419 92.8494 19.866 93.1194 20.412C93.3954 20.958 93.5334 21.522 93.5334 22.104C93.5334 22.818 93.3624 23.424 93.0204 23.922C92.6844 24.42 92.2254 24.756 91.6434 24.93V24.48C92.4594 24.666 93.0774 25.053 93.4974 25.641C93.9234 26.229 94.1364 26.898 94.1364 27.648C94.1364 28.416 93.9894 29.088 93.6954 29.664C93.4014 30.24 92.9634 30.69 92.3814 31.014C91.8054 31.338 91.0914 31.5 90.2394 31.5H84.5784ZM86.7744 29.457H89.9694C90.3474 29.457 90.6864 29.382 90.9864 29.232C91.2864 29.076 91.5204 28.86 91.6884 28.584C91.8624 28.302 91.9494 27.969 91.9494 27.585C91.9494 27.237 91.8744 26.925 91.7244 26.649C91.5744 26.373 91.3554 26.154 91.0674 25.992C90.7794 25.824 90.4344 25.74 90.0324 25.74H86.7744V29.457ZM86.7744 23.715H89.6904C90.0024 23.715 90.2814 23.655 90.5274 23.535C90.7734 23.415 90.9684 23.238 91.1124 23.004C91.2564 22.77 91.3284 22.482 91.3284 22.14C91.3284 21.69 91.1844 21.315 90.8964 21.015C90.6084 20.715 90.2064 20.565 89.6904 20.565H86.7744V23.715ZM100.227 31.77C99.2548 31.77 98.4058 31.551 97.6798 31.113C96.9538 30.675 96.3898 30.072 95.9878 29.304C95.5918 28.53 95.3938 27.642 95.3938 26.64C95.3938 25.62 95.5978 24.726 96.0058 23.958C96.4138 23.19 96.9808 22.59 97.7068 22.158C98.4328 21.726 99.2728 21.51 100.227 21.51C101.205 21.51 102.057 21.729 102.783 22.167C103.509 22.605 104.073 23.211 104.475 23.985C104.877 24.753 105.078 25.638 105.078 26.64C105.078 27.648 104.874 28.539 104.466 29.313C104.064 30.081 103.5 30.684 102.774 31.122C102.048 31.554 101.199 31.77 100.227 31.77ZM100.227 29.736C101.091 29.736 101.733 29.448 102.153 28.872C102.573 28.296 102.783 27.552 102.783 26.64C102.783 25.698 102.57 24.948 102.144 24.39C101.718 23.826 101.079 23.544 100.227 23.544C99.6448 23.544 99.1648 23.676 98.7868 23.94C98.4148 24.198 98.1388 24.561 97.9588 25.029C97.7788 25.491 97.6888 26.028 97.6888 26.64C97.6888 27.582 97.9018 28.335 98.3278 28.899C98.7598 29.457 99.3928 29.736 100.227 29.736ZM110.706 31.779C109.986 31.779 109.392 31.659 108.924 31.419C108.456 31.179 108.084 30.873 107.808 30.501C107.532 30.129 107.328 29.733 107.196 29.313C107.064 28.893 106.977 28.497 106.935 28.125C106.899 27.747 106.881 27.441 106.881 27.207V21.78H109.077V26.46C109.077 26.76 109.098 27.099 109.14 27.477C109.182 27.849 109.278 28.209 109.428 28.557C109.584 28.899 109.812 29.181 110.112 29.403C110.418 29.625 110.829 29.736 111.345 29.736C111.621 29.736 111.894 29.691 112.164 29.601C112.434 29.511 112.677 29.358 112.893 29.142C113.115 28.92 113.292 28.617 113.424 28.233C113.556 27.849 113.622 27.363 113.622 26.775L114.909 27.324C114.909 28.152 114.747 28.902 114.423 29.574C114.105 30.246 113.634 30.783 113.01 31.185C112.386 31.581 111.618 31.779 110.706 31.779ZM113.883 31.5V28.485H113.622V21.78H115.8V31.5H113.883ZM125.051 31.5V26.82C125.051 26.514 125.03 26.175 124.988 25.803C124.946 25.431 124.847 25.074 124.691 24.732C124.541 24.384 124.313 24.099 124.007 23.877C123.707 23.655 123.299 23.544 122.783 23.544C122.507 23.544 122.234 23.589 121.964 23.679C121.694 23.769 121.448 23.925 121.226 24.147C121.01 24.363 120.836 24.663 120.704 25.047C120.572 25.425 120.506 25.911 120.506 26.505L119.219 25.956C119.219 25.128 119.378 24.378 119.696 23.706C120.02 23.034 120.494 22.5 121.118 22.104C121.742 21.702 122.51 21.501 123.422 21.501C124.142 21.501 124.736 21.621 125.204 21.861C125.672 22.101 126.044 22.407 126.32 22.779C126.596 23.151 126.8 23.547 126.932 23.967C127.064 24.387 127.148 24.786 127.184 25.164C127.226 25.536 127.247 25.839 127.247 26.073V31.5H125.051ZM118.31 31.5V21.78H120.245V24.795H120.506V31.5H118.31ZM135.293 31.5C134.651 31.62 134.021 31.671 133.403 31.653C132.791 31.641 132.242 31.53 131.756 31.32C131.27 31.104 130.901 30.765 130.649 30.303C130.427 29.883 130.31 29.454 130.298 29.016C130.286 28.578 130.28 28.083 130.28 27.531V19.08H132.44V27.405C132.44 27.795 132.443 28.137 132.449 28.431C132.461 28.725 132.524 28.965 132.638 29.151C132.854 29.511 133.199 29.712 133.673 29.754C134.147 29.796 134.687 29.772 135.293 29.682V31.5ZM128.516 23.481V21.78H135.293V23.481H128.516ZM138.397 35.82L140.269 30.681L140.305 32.193L136.066 21.78H138.325L141.331 29.484H140.755L143.68 21.78H145.849L140.431 35.82H138.397Z" fill="#131414"/>
</svg>
